<?xml version="1.0" encoding="utf-8"?>
<svg viewBox="0 0 500 500" xmlns="http://www.w3.org/2000/svg">
  <path style="stroke: rgb(0, 0, 0); fill: rgb(45, 171, 221); stroke-opacity: 0;" d="M 274.602 92.711 C 392.437 92.711 392.746 177.622 339.402 274.325 C 295.492 353.926 174.425 359.929 121.478 285.129 C 68.533 210.331 123.42 110.83 220.275 106.028 C 268.868 103.619 314.625 127.18 337.82 166.555 C 353.536 193.236 363.731 222.371 367.884 252.48 C 373.592 293.854 329.861 326.212 287.183 312.191 C 253.969 301.285 220.38 327.563 226.725 359.49 C 229.28 372.347 238.169 383.387 250.79 389.377 C 318.455 421.502 398.532 374.164 394.927 304.169 C 391.323 234.173 306.742 194.015 242.681 231.886 C 227.969 240.583 216.026 252.714 208.067 267.044 C 180.007 317.56 103.054 321.175 69.551 273.552 C 36.048 225.928 71.122 162.783 132.685 159.891 C 165.512 158.349 196.03 175.428 209.649 202.963 C 239.821 263.976 330.439 272.048 372.763 217.493 C 411.906 167.038 340.127 107.815 274.526 93.737"/>
</svg>